<?xml version="1.0" encoding="UTF-8"?>
<svg width="41px" height="42px" viewBox="0 0 41 42" version="1.1" xmlns="http://www.w3.org/2000/svg" xmlns:xlink="http://www.w3.org/1999/xlink">
    <title>AF6024EE-C45B-4080-A62B-3CAEB6FEA085@1.5x</title>
    <g id="Final" stroke="none" stroke-width="1" fill="none" fill-rule="evenodd">
        <g id="XTWO-Home-05" transform="translate(-147.000000, -778.000000)">
            <g id="Group-36" transform="translate(134.500000, 766.000000)">
                <g id="Group-23" transform="translate(0.500000, 0.000000)">
                    <g id="streamline-icon-gift-box@48x48" transform="translate(13.000000, 13.000000)">
                        <path d="M19.1666667,39.1666667 L2.5,34.1666667 M19.1666667,25 L0.833333333,20 L0.85,14.1666667 L19.1666667,19.1666667 M10,11.6666667 L0.833333333,14.1666667 M2.5,34.1666667 L2.5,20.455 M19.1666667,25 L37.5,20 L37.5,14.1666667 L19.1666667,19.1666667 M29.1666667,16.4366667 L10,11.6666667 M28.3333333,11.6666667 L37.5,14.1666667 M9.16666667,16.4366667 L28.3333333,11.6666667 M19.1666667,39.1666667 L35.8333333,34.1666667 L35.8333333,20.455 M19.1666667,39.1666667 L19.1666667,19.1666667 M9.16666667,16.4366667 L9.16666667,36.1583333 M29.1666667,16.4366667 L29.1666667,36.1666667 M17.5166667,10 L9.16666667,4.16666667 L9.16666667,0.833333333 L14.1983333,0.833333333 L17.5166667,10 Z M20.85,10 L29.1666667,4.16666667 L29.1666667,0.833333333 L24.1666667,0.833333333 L20.85,10 Z" id="Shape" stroke="#0C68B1" stroke-width="2" stroke-linecap="round" stroke-linejoin="round"></path>
                        <polygon id="Path" points="0 0 40 0 40 40 0 40"></polygon>
                    </g>
                </g>
            </g>
        </g>
    </g>
</svg>