<?xml version="1.0" encoding="UTF-8"?>
<svg width="41px" height="40px" viewBox="0 0 41 40" version="1.1" xmlns="http://www.w3.org/2000/svg" xmlns:xlink="http://www.w3.org/1999/xlink">
    <title>568F0CE0-80C7-4EC7-BEB0-C9C8BC4EF6BC@1.5x</title>
    <g id="Final" stroke="none" stroke-width="1" fill="none" fill-rule="evenodd">
        <g id="XTWO-Home-05" transform="translate(-943.000000, -778.000000)">
            <g id="Group-36" transform="translate(134.500000, 766.000000)">
                <g id="Group-23-Copy-2" transform="translate(796.500000, 0.000000)">
                    <g id="streamline-icon-delivery-package-2@48x48" transform="translate(12.000000, 12.000000)">
                        <g id="Group" stroke-linecap="round" stroke-linejoin="round" transform="translate(2.500000, 6.666667)" stroke="#0C68B1" stroke-width="2">
                            <polyline id="Path" points="10 5.83333333 10 22.5 23.3333333 28.3333333 36.6666667 22.5 36.6666667 5.83333333"></polyline>
                            <polyline id="Path" points="10 5.83333333 23.3333333 11.6666667 36.6666667 5.83333333"></polyline>
                            <polyline id="Path" points="16.6666667 2.91666667 30 8.80166667 30 14.1666667"></polyline>
                            <path d="M10,5.83333333 L23.3333333,0 L36.6666667,5.83333333 M0,16.0866667 L0.0783333333,16.1233333 L6.66666667,19.1666667 M1.17666667,10.7966667 L6.66666667,13.3333333 M2.275,5.47166667 L6.66666667,7.5 M23.3333333,11.6666667 L23.3333333,28.3333333" id="Shape"></path>
                        </g>
                        <polygon id="Path" points="0 0 40 0 40 40 0 40"></polygon>
                    </g>
                </g>
            </g>
        </g>
    </g>
</svg>